<svg id="layer 1" data-name="layer 1" xmlns="http://www.w3.org/2000/svg" viewBox="0 0 463.21 113.09"><defs><style>.cls-1{fill:#2caee2;}.cls-2{fill:#2caee2;}</style></defs><title>Logo</title><path class="cls-1" d="M236.58,21.43V88.54h-8.44V34l-22.06,29L184,34V88.54h-8.44V21.43h9l21.55,28.22,21.5-28.22h9Z"/><path class="cls-1" d="M252,65.92v0.14a15.52,15.52,0,0,0,4.62,11.43,15.16,15.16,0,0,0,21.87-.09q0.65-.65,2.52-2.94l7.93,2.8a25.76,25.76,0,0,1-4.1,5.27,24.49,24.49,0,0,1-34.44.12,23.18,23.18,0,0,1,0-33.23,24.58,24.58,0,0,1,34.44.09q6.11,6.16,6.11,16.42H252Zm1.49-7.37H281.4q-3-8.67-13.9-8.67T253.46,58.55Z"/><path class="cls-1" d="M343.86,88.54h-8.44V81.08q-5,8.58-15.21,8.58a23.32,23.32,0,0,1-17.14-7,23.18,23.18,0,0,1,0-33.23,23.36,23.36,0,0,1,17.14-7q10.21,0,15.21,8.49V21.43h8.44V88.54Zm-8.44-19.12V62.61a15.92,15.92,0,0,0-15.21-12.73,14.85,14.85,0,0,0-10.91,4.66,15.73,15.73,0,0,0-4.62,11.52,15.52,15.52,0,0,0,4.62,11.43A15.52,15.52,0,0,0,335.41,69.42Z"/><path class="cls-1" d="M362,33.76a5.07,5.07,0,0,1,1.7,3.71,5.16,5.16,0,0,1-1.7,3.8,6.42,6.42,0,0,1-8.61,0,5.19,5.19,0,0,1-1.68-3.8,5.1,5.1,0,0,1,1.68-3.71A6.42,6.42,0,0,1,362,33.76Zm-0.12,12.15V88.54h-8.4V45.91h8.4Z"/><path class="cls-1" d="M380.42,56.74V88.54H372V45.91h8.44q2.14-2.33,8.86-2.33,8.07,0,13,4.94a16.77,16.77,0,0,1,5,12.08V88.54h-8.4V61A9.65,9.65,0,0,0,396,53.77a9.35,9.35,0,0,0-6.72-2.87,9.26,9.26,0,0,0-6.58,2.71A10.56,10.56,0,0,0,380.42,56.74Z"/><path class="cls-1" d="M463.21,88.54h-8.44V81.08q-5,8.58-15.21,8.58a23.32,23.32,0,0,1-17.14-7,23.18,23.18,0,0,1,0-33.23,23.36,23.36,0,0,1,17.14-7q10.21,0,15.21,8.49v-5h8.44V88.54Zm-8.44-19.12V62.61a15.92,15.92,0,0,0-15.21-12.73,14.85,14.85,0,0,0-10.91,4.66A15.73,15.73,0,0,0,424,66.06a15.52,15.52,0,0,0,4.62,11.43A15.52,15.52,0,0,0,454.77,69.42Z"/><path class="cls-2" d="M143.46,57.47a6.52,6.52,0,0,0-5.38,2.83H96.53a3.2,3.2,0,0,0-2.92,2.38l-0.19.75L86.9,17.18a3.09,3.09,0,1,0-6.17-.1l-3.19,17.7h0L70.6,79.24l-6.88-37.5A3.37,3.37,0,0,0,61,38.84,3.08,3.08,0,0,0,57.82,41l-7.5,19.27H3.13a3.77,3.77,0,0,0,0,7.43h49.2a3.13,3.13,0,0,0,2.84-2.16l4.42-11.38,8.2,42A3.31,3.31,0,0,0,70.85,99h0a3.34,3.34,0,0,0,3-3l3.35-18.76h0L83.56,37,89,78.29a3.43,3.43,0,0,0,2.76,3.11A3.15,3.15,0,0,0,95.06,79l3.61-11.31h39.41A6.54,6.54,0,1,0,143.46,57.47Z"/><path class="cls-2" d="M26.61,54.83a48.42,48.42,0,0,1,96.79,0h8.12a56.54,56.54,0,0,0-113,0h8.12Z"/><path class="cls-2" d="M120.52,73.08a48.43,48.43,0,0,1-91,0H20.92a56.55,56.55,0,0,0,108.15,0h-8.56Z"/></svg>